<?xml version="1.0" encoding="UTF-8"?>
<svg id="Layer_2" data-name="Layer 2" xmlns="http://www.w3.org/2000/svg" viewBox="0 0 174.57 159.2">
  <defs>
    <style>
      .cls-1 {
        font-family: Helvetica-Light, Helvetica;
        font-size: 21px;
        font-weight: 300;
      }

      .cls-1, .cls-2 {
        fill: #231f20;
      }

      .cls-2, .cls-3 {
        stroke-width: 0px;
      }

      .cls-3 {
        fill: #fff;
      }
    </style>
  </defs>
  <g id="Layer_1-2" data-name="Layer 1">
    <g>
      <rect class="cls-3" width="174.57" height="159.2"/>
      <g>
        <g>
          <g>
            <path class="cls-2" d="m54.13,44.29c.88-2.72,2.07-6.07,4.93-7.26,3.03-1.26,6.59.28,8.92,2.25,5.47,4.62,8.46,11.8,15.73,14.1l-.83-3.13c-1.82,1.51-3.63,3.03-5.45,4.54s-3.03,2.88-2.84,5.33c.26,3.26.91,6.52,1.4,9.76.55,3.58,1.08,7.17,1.44,10.77.16,1.61.29,3.22.34,4.83.02.62-.12,1.42,0,2.03v.27c.28-.43.57-.87.87-1.3-.18.15.83-1.13.36-.15-.01.03-.15.04-.18.05-.48.19.27,0-.07.01-.26,0-.52.04-.77.06-.69.04-1.38.06-2.06.08-1.98.05-3.97.05-5.95.05-4.77-.01-9.53-.1-14.29-.2-2.91-.06-5.82-.13-8.72-.21l1.88,1.88c.5-11.13,1.33-22.35,3.05-33.36.55-3.49,1.16-7.01,2.24-10.39.73-2.3-2.89-3.29-3.62-1-2.1,6.6-2.81,13.71-3.56,20.56s-1.25,13.36-1.64,20.06c-.08,1.37-.16,2.75-.22,4.12-.05,1.03.9,1.85,1.88,1.88,7.24.2,14.49.36,21.73.4,3.41.02,6.93.19,10.32-.21.53-.06,1.08-.11,1.55-.4,1.29-.8,1-2.61.97-3.92-.08-3.54-.53-7.08-1-10.59-.54-4.03-1.2-8.05-1.79-12.08-.1-.7-.2-1.39-.29-2.09-.16-1.28-.27-1.97.75-2.85,2.08-1.8,4.22-3.52,6.33-5.28,1.14-.95.41-2.74-.83-3.13-3.69-1.16-6.29-4.25-8.65-7.15-2.54-3.11-5.13-6.48-8.82-8.3-3.39-1.67-7.65-2.19-10.97-.05s-4.65,5.59-5.77,9.02c-.75,2.3,2.87,3.29,3.62,1Z"/>
            <path class="cls-2" d="m67.32,51.24c2.41,0,2.42-3.75,0-3.75s-2.42,3.75,0,3.75h0Z"/>
          </g>
          <g>
            <path class="cls-2" d="m124.06,43.29c-1.12-3.43-2.6-7-5.77-9.02-3.33-2.13-7.57-1.62-10.97.05-3.69,1.82-6.28,5.18-8.82,8.3-2.36,2.9-4.96,5.98-8.65,7.15-1.24.39-1.97,2.18-.83,3.13,1.82,1.51,3.63,3.03,5.45,4.54.76.64,1.77,1.16,1.76,2.25,0,.74-.14,1.49-.25,2.23-.47,3.43-1.04,6.85-1.54,10.28-.53,3.66-1.04,7.34-1.3,11.04-.11,1.5-.2,3.03-.12,4.54.06,1.07.52,1.88,1.59,2.19s2.39.26,3.52.3c1.95.06,3.91.06,5.87.06,4.84,0,9.69-.09,14.53-.19,3.02-.06,6.04-.13,9.06-.22.98-.03,1.92-.84,1.88-1.88-.52-11.47-1.41-23.01-3.19-34.36-.55-3.49-1.16-7.01-2.24-10.39-.73-2.29-4.35-1.31-3.62,1,2.05,6.43,2.76,13.34,3.48,20.02s1.21,13.06,1.59,19.61c.08,1.37.16,2.75.22,4.12l1.88-1.88c-7.08.2-14.17.35-21.25.4-3.51.02-7.01.02-10.51-.17-.47-.03.36.17-.11-.02-.02,0-.14-.02-.14-.03,0-.02.27.1.35.15-.17-.12.65,1.86.85,1.15.15-.56-.02-1.42,0-2.01.02-.8.06-1.6.12-2.39.25-3.55.73-7.08,1.25-10.6.55-3.74,1.17-7.46,1.66-11.21.14-1.09.31-2.21.02-3.29-.31-1.14-1.1-1.99-1.97-2.74-2.03-1.74-4.12-3.43-6.17-5.15l-.83,3.13c7.28-2.3,10.26-9.49,15.73-14.1,2.34-1.97,5.89-3.52,8.92-2.25,2.86,1.19,4.05,4.55,4.93,7.26.74,2.28,4.37,1.31,3.62-1Z"/>
            <path class="cls-2" d="m107.25,51.24c2.41,0,2.42-3.75,0-3.75s-2.42,3.75,0,3.75h0Z"/>
          </g>
        </g>
        <text class="cls-1" transform="translate(26.62 117.03)"><tspan x="0" y="0">COPYPASTE</tspan></text>
      </g>
    </g>
  </g>
</svg>