<svg version="1.1" id="Layer_1" xmlns="http://www.w3.org/2000/svg" xmlns:xlink="http://www.w3.org/1999/xlink" x="0px" y="0px"
	 viewBox="0 0 595.28 841.89" style="enable-background:new 0 0 595.28 841.89;" xml:space="preserve">
<style type="text/css">
	.st0{fill:#FFFFFF;}
	.st1{font-family:'Helvetica-Light';}
	.st2{font-size:21px;}
</style>
<g>
	<rect x="209.93" y="341.45" class="st0" width="174.57" height="159.2"/>
	<g>
		<g>
			<g>
				<g>
					<g>
						<path d="M264.06,385.74c0.88-2.72,2.07-6.07,4.93-7.26c3.03-1.26,6.59,0.28,8.92,2.25c5.47,4.62,8.46,11.8,15.73,14.1
							c-0.28-1.04-0.55-2.09-0.83-3.13c-1.82,1.51-3.63,3.03-5.45,4.54c-1.77,1.47-3.03,2.88-2.84,5.33
							c0.26,3.26,0.91,6.52,1.4,9.76c0.55,3.58,1.08,7.17,1.44,10.77c0.16,1.61,0.29,3.22,0.34,4.83c0.02,0.62-0.12,1.42,0.01,2.03
							c0,0.09-0.01,0.18-0.01,0.27c0.29-0.43,0.58-0.87,0.87-1.3c-0.18,0.15,0.83-1.13,0.36-0.15c-0.01,0.03-0.15,0.04-0.18,0.05
							c-0.48,0.19,0.27,0-0.07,0.01c-0.26,0.01-0.52,0.04-0.77,0.06c-0.69,0.04-1.38,0.06-2.06,0.08c-1.98,0.05-3.97,0.05-5.95,0.05
							c-4.77-0.01-9.53-0.1-14.29-0.2c-2.91-0.06-5.82-0.13-8.72-0.21c0.62,0.62,1.25,1.25,1.88,1.88
							c0.5-11.13,1.33-22.35,3.05-33.36C262.37,392.63,262.99,389.12,264.06,385.74c0.73-2.3-2.89-3.29-3.62-1
							c-2.1,6.6-2.81,13.71-3.56,20.56c-0.73,6.67-1.25,13.36-1.64,20.06c-0.08,1.37-0.16,2.75-0.22,4.12
							c-0.05,1.03,0.9,1.85,1.88,1.88c7.24,0.2,14.49,0.36,21.73,0.4c3.41,0.02,6.93,0.19,10.32-0.21c0.53-0.06,1.08-0.11,1.55-0.4
							c1.29-0.8,1-2.61,0.97-3.92c-0.08-3.54-0.53-7.08-1-10.59c-0.54-4.03-1.2-8.05-1.79-12.08c-0.1-0.7-0.2-1.39-0.29-2.09
							c-0.16-1.28-0.27-1.97,0.75-2.85c2.08-1.8,4.22-3.52,6.33-5.28c1.14-0.95,0.41-2.74-0.83-3.13c-3.69-1.16-6.29-4.25-8.65-7.15
							c-2.54-3.11-5.13-6.48-8.82-8.3c-3.39-1.67-7.65-2.19-10.97-0.05c-3.16,2.03-4.65,5.59-5.77,9.02
							C259.7,387.04,263.32,388.03,264.06,385.74z"/>
					</g>
				</g>
				<g>
					<g>
						<path d="M277.25,392.69c2.41,0,2.42-3.75,0-3.75C274.84,388.94,274.84,392.69,277.25,392.69L277.25,392.69z"/>
					</g>
				</g>
			</g>
			<g>
				<g>
					<g>
						<path d="M333.99,384.74c-1.12-3.43-2.6-7-5.77-9.02c-3.33-2.13-7.57-1.62-10.97,0.05c-3.69,1.82-6.28,5.18-8.82,8.3
							c-2.36,2.9-4.96,5.98-8.65,7.15c-1.24,0.39-1.97,2.18-0.83,3.13c1.82,1.51,3.63,3.03,5.45,4.54c0.76,0.64,1.77,1.16,1.76,2.25
							c0,0.74-0.14,1.49-0.25,2.23c-0.47,3.43-1.04,6.85-1.54,10.28c-0.53,3.66-1.04,7.34-1.3,11.04c-0.11,1.5-0.2,3.03-0.12,4.54
							c0.06,1.07,0.52,1.88,1.59,2.19c1.1,0.31,2.39,0.26,3.52,0.3c1.95,0.06,3.91,0.06,5.87,0.06c4.84-0.01,9.69-0.09,14.53-0.19
							c3.02-0.06,6.04-0.13,9.06-0.22c0.98-0.03,1.92-0.84,1.88-1.88c-0.52-11.47-1.41-23.01-3.19-34.36
							C335.68,391.64,335.07,388.12,333.99,384.74c-0.73-2.29-4.35-1.31-3.62,1c2.05,6.43,2.76,13.34,3.48,20.02
							c0.7,6.52,1.21,13.06,1.59,19.61c0.08,1.37,0.16,2.75,0.22,4.12c0.62-0.62,1.25-1.25,1.88-1.88
							c-7.08,0.2-14.17,0.35-21.25,0.4c-3.51,0.02-7.01,0.02-10.51-0.17c-0.47-0.03,0.36,0.17-0.11-0.02
							c-0.02-0.01-0.14-0.02-0.14-0.03c-0.01-0.02,0.27,0.1,0.35,0.15c-0.17-0.12,0.65,1.86,0.85,1.15c0.15-0.56-0.02-1.42,0-2.01
							c0.02-0.8,0.06-1.6,0.12-2.39c0.25-3.55,0.73-7.08,1.25-10.6c0.55-3.74,1.17-7.46,1.66-11.21c0.14-1.09,0.31-2.21,0.02-3.29
							c-0.31-1.14-1.1-1.99-1.97-2.74c-2.03-1.74-4.12-3.43-6.17-5.15c-0.28,1.04-0.55,2.09-0.83,3.13
							c7.28-2.3,10.26-9.49,15.73-14.1c2.34-1.97,5.89-3.52,8.92-2.25c2.86,1.19,4.05,4.55,4.93,7.26
							C331.12,388.02,334.74,387.05,333.99,384.74z"/>
					</g>
				</g>
				<g>
					<g>
						<path d="M317.18,392.69c2.41,0,2.42-3.75,0-3.75C314.77,388.94,314.77,392.69,317.18,392.69L317.18,392.69z"/>
					</g>
				</g>
			</g>
		</g>
		<text transform="matrix(1 0 0 1 236.5514 458.4801)" class="st1 st2">COPYPASTE</text>
	</g>
</g>
</svg>