<?xml version="1.0" encoding="UTF-8"?>
<svg id="Layer_1" xmlns="http://www.w3.org/2000/svg" version="1.1" viewBox="0 0 174.6 159.2">
  <!-- Generator: Adobe Illustrator 29.5.1, SVG Export Plug-In . SVG Version: 2.1.0 Build 141)  -->
  <defs>
    <style>
      .st0 {
        font-family: Helvetica-Light, Helvetica;
        font-size: 21px;
        font-weight: 300;
        isolation: isolate;
      }

      .st1 {
        fill: #fff;
      }
    </style>
  </defs>
  <rect class="st1" width="174.6" height="159.2"/>
  <g>
    <g>
      <g>
        <path d="M54.1,44.3c.9-2.7,2.1-6.1,4.9-7.3,3-1.3,6.6.3,8.9,2.2,5.5,4.6,8.5,11.8,15.7,14.1-.3-1-.5-2.1-.8-3.1-1.8,1.5-3.6,3-5.5,4.5-1.8,1.5-3,2.9-2.8,5.3.3,3.3.9,6.5,1.4,9.8.5,3.6,1.1,7.2,1.4,10.8.2,1.6.3,3.2.3,4.8,0,.6-.1,1.4,0,2,0,0,0,.2,0,.3.3-.4.6-.9.9-1.3-.2.1.8-1.1.4-.1,0,0-.1,0-.2,0-.5.2.3,0,0,0-.3,0-.5,0-.8,0-.7,0-1.4,0-2.1,0-2,0-4,0-6,0-4.8,0-9.5-.1-14.3-.2-2.9,0-5.8-.1-8.7-.2l1.9,1.9c.5-11.1,1.3-22.4,3-33.4.6-3.5,1.2-7,2.2-10.4.7-2.3-2.9-3.3-3.6-1-2.1,6.6-2.8,13.7-3.6,20.6-.7,6.7-1.2,13.4-1.6,20.1,0,1.4-.2,2.8-.2,4.1,0,1,.9,1.9,1.9,1.9,7.2.2,14.5.4,21.7.4,3.4,0,6.9.2,10.3-.2.5,0,1.1-.1,1.5-.4,1.3-.8,1-2.6,1-3.9,0-3.5-.5-7.1-1-10.6-.5-4-1.2-8-1.8-12.1-.1-.7-.2-1.4-.3-2.1-.2-1.3-.3-2,.8-2.9,2.1-1.8,4.2-3.5,6.3-5.3,1.1-1,.4-2.7-.8-3.1-3.7-1.2-6.3-4.2-8.6-7.1-2.5-3.1-5.1-6.5-8.8-8.3-3.4-1.7-7.6-2.2-11,0-3.2,2-4.6,5.6-5.8,9-.7,2.3,2.9,3.3,3.6,1Z"/>
        <path d="M67.3,51.2c2.4,0,2.4-3.8,0-3.8s-2.4,3.8,0,3.8h0Z"/>
      </g>
      <g>
        <path d="M124.1,43.3c-1.1-3.4-2.6-7-5.8-9-3.3-2.1-7.6-1.6-11,0-3.7,1.8-6.3,5.2-8.8,8.3-2.4,2.9-5,6-8.6,7.1-1.2.4-2,2.2-.8,3.1,1.8,1.5,3.6,3,5.5,4.5.8.6,1.8,1.2,1.8,2.2,0,.7-.1,1.5-.2,2.2-.5,3.4-1,6.9-1.5,10.3-.5,3.7-1,7.3-1.3,11-.1,1.5-.2,3-.1,4.5,0,1.1.5,1.9,1.6,2.2,1.1.3,2.4.3,3.5.3,2,0,3.9,0,5.9,0,4.8,0,9.7,0,14.5-.2,3,0,6-.1,9.1-.2,1,0,1.9-.8,1.9-1.9-.5-11.5-1.4-23-3.2-34.4-.5-3.5-1.1-7-2.2-10.4-.7-2.3-4.4-1.3-3.6,1,2,6.4,2.8,13.3,3.5,20,.7,6.5,1.2,13.1,1.6,19.6,0,1.4.2,2.8.2,4.1l1.9-1.9c-7.1.2-14.2.4-21.2.4-3.5,0-7,0-10.5-.2-.5,0,.4.2-.1,0,0,0-.1,0-.1,0,0,0,.3.1.4.1-.2-.1.6,1.9.9,1.1.1-.6,0-1.4,0-2,0-.8,0-1.6.1-2.4.2-3.5.7-7.1,1.2-10.6.5-3.7,1.2-7.5,1.7-11.2.1-1.1.3-2.2,0-3.3-.3-1.1-1.1-2-2-2.7-2-1.7-4.1-3.4-6.2-5.1-.3,1-.5,2.1-.8,3.1,7.3-2.3,10.3-9.5,15.7-14.1,2.3-2,5.9-3.5,8.9-2.2,2.9,1.2,4,4.5,4.9,7.3.7,2.3,4.3,1.3,3.6-1Z"/>
        <path d="M107.2,51.2c2.4,0,2.4-3.8,0-3.8s-2.4,3.8,0,3.8h0Z"/>
      </g>
    </g>
    <text class="st0" transform="translate(26.6 117)"><tspan x="0" y="0">COPYPASTE</tspan></text>
  </g>
</svg>